<svg width="516" height="300" viewBox="0 0 516 300" fill="none" xmlns="http://www.w3.org/2000/svg">
<path d="M16 -0.000671387H508C512.418 -0.000671387 516 3.58105 516 7.99933V291.999C516 296.418 512.418 299.999 508 299.999H24C19.5817 299.999 16 296.418 16 291.999V-0.000671387Z" fill="#EDEFF2"/>
<path d="M30 14L30 2.43547e-05L27.5422 4.14198e-07C27.5422 4.14198e-07 23.1181 2.43547e-05 18.694 2.43547e-05L9.84584 2.43547e-05C9.84584 2.43547e-05 7.38802 2.43547e-05 2.47237 2.43547e-05C-2.44328 2.43547e-05 1.48924 2.08679 1.48924 2.08679L30 14Z" fill="#EDEFF2"/>
</svg>
