<svg width="216" height="20" viewBox="0 0 216 20" fill="none" xmlns="http://www.w3.org/2000/svg">
<path d="M16 0H208C212.418 0 216 3.58172 216 8V12C216 16.4183 212.418 20 208 20H24C19.5817 20 16 16.4183 16 12V0Z" fill="#EDEFF2"/>
<path d="M30 14L30 2.43547e-05L27.5422 4.14198e-07C27.5422 4.14198e-07 23.1181 2.43547e-05 18.694 2.43547e-05L9.84584 2.43547e-05C9.84584 2.43547e-05 7.38802 2.43547e-05 2.47237 2.43547e-05C-2.44328 2.43547e-05 1.48924 2.08679 1.48924 2.08679L30 14Z" fill="#EDEFF2"/>
</svg>
